<svg width="41" height="48" viewBox="0 0 41 48" fill="none" xmlns="http://www.w3.org/2000/svg">
<path fill-rule="evenodd" clip-rule="evenodd" d="M0 1.33333C0 0.596954 0.655584 0 1.46429 0H20.6059C20.9942 0 21.3667 0.140475 21.6413 0.390523L40.5711 17.6275C40.8457 17.8775 41 18.2166 41 18.5703V46.6667C41 47.403 40.3444 48 39.5357 48H1.46429C0.655583 48 0 47.403 0 46.6667V1.33333ZM3.66071 3.33333V44.6667H37.3393V20.375H20.0882C19.2795 20.375 18.6239 19.778 18.6239 19.0417V3.33333H3.66071ZM22.2846 5.69036L34.7508 17.0417H22.2846V5.69036Z" fill="#6495ED" fill-opacity="0.8"/>
<path d="M9.51786 25.5C9.51786 25.1318 9.84565 24.8333 10.25 24.8333H30.75C31.1544 24.8333 31.4821 25.1318 31.4821 25.5V27.5C31.4821 27.8682 31.1544 28.1667 30.75 28.1667H10.25C9.84565 28.1667 9.51786 27.8682 9.51786 27.5V25.5Z" fill="#6495ED" fill-opacity="0.8"/>
<path d="M9.51786 31.5C9.51786 31.1318 9.84565 30.8333 10.25 30.8333H30.75C31.1544 30.8333 31.4821 31.1318 31.4821 31.5V33.5C31.4821 33.8682 31.1544 34.1667 30.75 34.1667H10.25C9.84565 34.1667 9.51786 33.8682 9.51786 33.5V31.5Z" fill="#6495ED" fill-opacity="0.8"/>
<path d="M9.51786 37.5C9.51786 37.1318 9.84565 36.8333 10.25 36.8333H19.7679C20.1722 36.8333 20.5 37.1318 20.5 37.5V39.5C20.5 39.8682 20.1722 40.1667 19.7679 40.1667H10.25C9.84565 40.1667 9.51786 39.8682 9.51786 39.5V37.5Z" fill="#6495ED" fill-opacity="0.8"/>
</svg>
