<svg width="194" height="102" viewBox="0 0 194 102" fill="none" xmlns="http://www.w3.org/2000/svg">
<path d="M21.1644 24.6877H29.4311C29.3209 27.0811 28.6753 29.1911 27.4944 31.0176C26.3134 32.8442 24.6758 34.2692 22.5816 35.2927C20.5031 36.3004 18.0467 36.8043 15.2124 36.8043C12.9135 36.8043 10.8586 36.4185 9.04783 35.647C7.25278 34.8754 5.72541 33.7653 4.46572 32.3167C3.22178 30.868 2.26914 29.1123 1.60781 27.0496C0.962217 24.9869 0.639422 22.6643 0.639422 20.082V18.216C0.639422 15.6337 0.977963 13.3111 1.65504 11.2484C2.34787 9.16992 3.32413 7.40636 4.58382 5.95772C5.85925 4.49334 7.38662 3.37537 9.16592 2.60381C10.9452 1.83225 12.9214 1.44647 15.0943 1.44647C18.0861 1.44647 20.6133 1.98184 22.6761 3.05257C24.7388 4.1233 26.337 5.59556 27.4707 7.46935C28.6045 9.32738 29.2737 11.4452 29.4784 13.8229H21.2117C21.1802 12.5317 20.9597 11.4531 20.5503 10.5871C20.1409 9.70529 19.4954 9.04395 18.6136 8.60306C17.7318 8.16217 16.5587 7.94173 15.0943 7.94173C14.0708 7.94173 13.1812 8.13068 12.4254 8.50859C11.6696 8.88649 11.0397 9.48484 10.5358 10.3036C10.032 11.1224 9.65405 12.1853 9.40212 13.4922C9.16592 14.7834 9.04783 16.3423 9.04783 18.1688V20.082C9.04783 21.9085 9.15805 23.4674 9.3785 24.7585C9.59894 26.0497 9.95323 27.1047 10.4414 27.9235C10.9295 28.7423 11.5593 29.3485 12.3309 29.7422C13.1182 30.1201 14.0787 30.309 15.2124 30.309C16.4721 30.309 17.535 30.1122 18.401 29.7186C19.267 29.3092 19.9362 28.6951 20.4086 27.8763C20.881 27.0417 21.1329 25.9789 21.1644 24.6877ZM45.4134 0.0529423V36.3319H37.4301V0.0529423H45.4134ZM53.3652 23.8138V23.3178C53.3652 21.444 53.6329 19.7198 54.1682 18.1452C54.7036 16.5548 55.4909 15.1771 56.5301 14.0118C57.5694 12.8466 58.8527 11.9412 60.38 11.2956C61.9074 10.6343 63.671 10.3036 65.6707 10.3036C67.6862 10.3036 69.4577 10.6343 70.985 11.2956C72.5281 11.9412 73.8193 12.8466 74.8586 14.0118C75.8978 15.1771 76.6851 16.5548 77.2205 18.1452C77.7558 19.7198 78.0235 21.444 78.0235 23.3178V23.8138C78.0235 25.6718 77.7558 27.396 77.2205 28.9864C76.6851 30.561 75.8978 31.9388 74.8586 33.1197C73.8193 34.2849 72.536 35.1903 71.0086 35.8359C69.4813 36.4815 67.7177 36.8043 65.718 36.8043C63.7182 36.8043 61.9468 36.4815 60.4037 35.8359C58.8605 35.1903 57.5694 34.2849 56.5301 33.1197C55.4909 31.9388 54.7036 30.561 54.1682 28.9864C53.6329 27.396 53.3652 25.6718 53.3652 23.8138ZM61.3248 23.3178V23.8138C61.3248 24.7743 61.3957 25.6718 61.5374 26.5064C61.6791 27.3409 61.9153 28.0731 62.246 28.7029C62.5766 29.317 63.0254 29.7973 63.5922 30.1437C64.1591 30.4901 64.8677 30.6633 65.718 30.6633C66.5525 30.6633 67.2453 30.4901 67.7964 30.1437C68.3633 29.7973 68.8121 29.317 69.1427 28.7029C69.4734 28.0731 69.7096 27.3409 69.8513 26.5064C69.993 25.6718 70.0639 24.7743 70.0639 23.8138V23.3178C70.0639 22.3888 69.993 21.5148 69.8513 20.6961C69.7096 19.8615 69.4734 19.1293 69.1427 18.4995C68.8121 17.8539 68.3633 17.35 67.7964 16.9879C67.2296 16.6257 66.521 16.4446 65.6707 16.4446C64.8362 16.4446 64.1355 16.6257 63.5686 16.9879C63.0175 17.35 62.5766 17.8539 62.246 18.4995C61.9153 19.1293 61.6791 19.8615 61.5374 20.6961C61.3957 21.5148 61.3248 22.3888 61.3248 23.3178ZM100.525 30.1201V10.776H108.508V36.3319H101.044L100.525 30.1201ZM101.28 24.9239L103.359 24.8766C103.359 26.593 103.154 28.1833 102.745 29.6477C102.335 31.0963 101.729 32.356 100.926 33.4268C100.139 34.4975 99.1626 35.332 97.9974 35.9304C96.848 36.513 95.5174 36.8043 94.0058 36.8043C92.7461 36.8043 91.5888 36.6311 90.5338 36.2847C89.4945 35.9225 88.597 35.3635 87.8412 34.6077C87.0854 33.8362 86.4949 32.852 86.0698 31.6553C85.6604 30.4429 85.4557 28.9942 85.4557 27.3094V10.776H93.4153V27.3566C93.4153 27.9235 93.4862 28.4116 93.6279 28.821C93.7696 29.2304 93.9743 29.5768 94.242 29.8603C94.5097 30.128 94.8403 30.3327 95.234 30.4744C95.6434 30.6003 96.1079 30.6633 96.6275 30.6633C97.8242 30.6633 98.7611 30.4114 99.4382 29.9075C100.115 29.4036 100.588 28.7187 100.855 27.8526C101.139 26.9866 101.28 26.0104 101.28 24.9239ZM131.623 30.4744V0.0529423H139.63V36.3319H132.45L131.623 30.4744ZM115.94 23.861V23.365C115.94 21.4282 116.153 19.6647 116.578 18.0743C117.003 16.4682 117.633 15.0904 118.467 13.941C119.302 12.7758 120.341 11.8782 121.585 11.2484C122.829 10.6186 124.262 10.3036 125.884 10.3036C127.332 10.3036 128.6 10.6422 129.686 11.3193C130.773 11.9806 131.702 12.9096 132.473 14.1063C133.245 15.303 133.875 16.7044 134.363 18.3105C134.851 19.9009 135.221 21.6172 135.473 23.4595V24.05C135.221 25.782 134.851 27.4196 134.363 28.9627C133.875 30.4901 133.245 31.8443 132.473 33.0252C131.702 34.2062 130.765 35.1352 129.663 35.8123C128.576 36.4736 127.301 36.8043 125.836 36.8043C124.215 36.8043 122.782 36.4815 121.538 35.8359C120.31 35.1903 119.278 34.2849 118.444 33.1197C117.625 31.9545 117.003 30.5846 116.578 29.01C116.153 27.4354 115.94 25.7191 115.94 23.861ZM123.9 23.365V23.861C123.9 24.8215 123.963 25.7112 124.089 26.53C124.215 27.3488 124.427 28.0731 124.726 28.7029C125.041 29.317 125.451 29.7973 125.955 30.1437C126.474 30.4901 127.112 30.6633 127.868 30.6633C128.891 30.6633 129.734 30.4193 130.395 29.9311C131.072 29.443 131.568 28.7502 131.883 27.8526C132.214 26.9551 132.355 25.9001 132.308 24.6877V22.8218C132.34 21.7825 132.269 20.8693 132.096 20.082C131.922 19.2789 131.647 18.6097 131.269 18.0743C130.907 17.539 130.442 17.1374 129.875 16.8698C129.324 16.5863 128.671 16.4446 127.915 16.4446C127.175 16.4446 126.545 16.6178 126.025 16.9642C125.522 17.3106 125.112 17.7988 124.797 18.4286C124.482 19.0427 124.254 19.7749 124.112 20.6252C123.971 21.4597 123.9 22.373 123.9 23.365ZM163.714 18.4286V24.5932H149.519V18.4286H163.714ZM19.3221 84.1913C19.3221 83.6559 19.2434 83.1757 19.086 82.7505C18.9285 82.3097 18.6372 81.9003 18.212 81.5223C17.7869 81.1444 17.1728 80.7665 16.3698 80.3886C15.5825 79.995 14.5432 79.5856 13.252 79.1604C11.7404 78.6566 10.2839 78.0897 8.88249 77.4599C7.48109 76.8143 6.22928 76.0663 5.12705 75.216C4.02483 74.35 3.15092 73.3423 2.50533 72.1928C1.85974 71.0276 1.53695 69.6734 1.53695 68.1303C1.53695 66.6502 1.86762 65.3196 2.52895 64.1387C3.19029 62.942 4.11143 61.9264 5.29239 61.0918C6.48909 60.2415 7.89049 59.5959 9.49659 59.155C11.1027 58.6984 12.8584 58.4701 14.7637 58.4701C17.283 58.4701 19.5032 58.911 21.4242 59.7928C23.361 60.6588 24.8726 61.8949 25.9591 63.501C27.0613 65.0913 27.6125 66.973 27.6125 69.1459H19.3694C19.3694 68.2799 19.1883 67.5162 18.8261 66.8549C18.4797 66.1935 17.9522 65.6739 17.2437 65.296C16.5351 64.9181 15.6454 64.7292 14.5747 64.7292C13.5355 64.7292 12.6616 64.8866 11.953 65.2015C11.2444 65.5165 10.709 65.9416 10.3469 66.477C9.98472 66.9966 9.80364 67.5713 9.80364 68.2012C9.80364 68.7208 9.94536 69.1932 10.2288 69.6183C10.528 70.0277 10.9452 70.4135 11.4806 70.7757C12.0317 71.1378 12.693 71.4842 13.4646 71.8149C14.2519 72.1456 15.1337 72.4684 16.1099 72.7833C17.9365 73.3659 19.5583 74.0193 20.9755 74.7437C22.4084 75.4522 23.613 76.2632 24.5892 77.1764C25.5812 78.074 26.3292 79.0975 26.833 80.2469C27.3526 81.3964 27.6125 82.6954 27.6125 84.1441C27.6125 85.6872 27.3133 87.0571 26.7149 88.2538C26.1166 89.4505 25.2584 90.4661 24.1404 91.3007C23.0225 92.1195 21.6841 92.7414 20.1252 93.1666C18.5663 93.5917 16.8264 93.8043 14.9054 93.8043C13.1418 93.8043 11.4019 93.5838 9.68554 93.143C7.98497 92.6863 6.44185 91.9935 5.0562 91.0645C3.67054 90.1197 2.56044 88.9151 1.7259 87.4507C0.907106 85.9706 0.497708 84.2149 0.497708 82.1837H8.81164C8.81164 83.1914 8.94548 84.0417 9.21316 84.7345C9.48085 85.4274 9.8745 85.9864 10.3941 86.4115C10.9137 86.8209 11.5515 87.1201 12.3073 87.309C13.0631 87.4822 13.9291 87.5688 14.9054 87.5688C15.9604 87.5688 16.8106 87.4193 17.4562 87.1201C18.1018 86.8052 18.5742 86.3958 18.8734 85.8919C19.1726 85.3723 19.3221 84.8054 19.3221 84.1913ZM49.0035 67.776V73.3029H33.6038V67.776H49.0035ZM36.8397 61.4225H44.7993V84.9944C44.7993 85.6714 44.878 86.1989 45.0355 86.5768C45.193 86.939 45.4606 87.1988 45.8385 87.3563C46.2322 87.498 46.7518 87.5688 47.3974 87.5688C47.854 87.5688 48.2319 87.561 48.5311 87.5452C48.8303 87.5137 49.1137 87.4744 49.3814 87.4271V93.1193C48.7043 93.3398 47.9958 93.5051 47.2557 93.6153C46.5156 93.7413 45.7283 93.8043 44.8938 93.8043C43.1932 93.8043 41.7367 93.5366 40.5242 93.0012C39.3275 92.4659 38.4143 91.6235 37.7844 90.474C37.1546 89.3245 36.8397 87.8287 36.8397 85.9864V61.4225ZM54.4989 80.8138V80.3178C54.4989 78.444 54.7666 76.7198 55.3019 75.1452C55.8373 73.5548 56.6246 72.1771 57.6638 71.0118C58.7031 69.8466 59.9864 68.9412 61.5138 68.2956C63.0411 67.6343 64.8047 67.3036 66.8044 67.3036C68.8199 67.3036 70.5914 67.6343 72.1187 68.2956C73.6619 68.9412 74.953 69.8466 75.9923 71.0118C77.0315 72.1771 77.8188 73.5548 78.3542 75.1452C78.8896 76.7198 79.1572 78.444 79.1572 80.3178V80.8138C79.1572 82.6718 78.8896 84.396 78.3542 85.9864C77.8188 87.561 77.0315 88.9388 75.9923 90.1197C74.953 91.2849 73.6697 92.1903 72.1424 92.8359C70.615 93.4815 68.8514 93.8043 66.8517 93.8043C64.8519 93.8043 63.0805 93.4815 61.5374 92.8359C59.9943 92.1903 58.7031 91.2849 57.6638 90.1197C56.6246 88.9388 55.8373 87.561 55.3019 85.9864C54.7666 84.396 54.4989 82.6718 54.4989 80.8138ZM62.4585 80.3178V80.8138C62.4585 81.7743 62.5294 82.6718 62.6711 83.5064C62.8128 84.3409 63.049 85.0731 63.3797 85.7029C63.7103 86.317 64.1591 86.7973 64.726 87.1437C65.2928 87.4901 66.0014 87.6633 66.8517 87.6633C67.6862 87.6633 68.3791 87.4901 68.9302 87.1437C69.497 86.7973 69.9458 86.317 70.2765 85.7029C70.6071 85.0731 70.8433 84.3409 70.985 83.5064C71.1267 82.6718 71.1976 81.7743 71.1976 80.8138V80.3178C71.1976 79.3888 71.1267 78.5148 70.985 77.6961C70.8433 76.8615 70.6071 76.1293 70.2765 75.4995C69.9458 74.8539 69.497 74.35 68.9302 73.9879C68.3633 73.6257 67.6547 73.4446 66.8044 73.4446C65.9699 73.4446 65.2692 73.6257 64.7023 73.9879C64.1512 74.35 63.7103 74.8539 63.3797 75.4995C63.049 76.1293 62.8128 76.8615 62.6711 77.6961C62.5294 78.5148 62.4585 79.3888 62.4585 80.3178ZM94.7616 74.1059V93.3319H86.802V67.776H94.242L94.7616 74.1059ZM102.32 67.5871L102.178 74.9799C101.863 74.9484 101.438 74.909 100.903 74.8618C100.367 74.8145 99.9184 74.7909 99.5563 74.7909C98.6273 74.7909 97.8242 74.9011 97.1471 75.1216C96.4858 75.3263 95.9347 75.6412 95.4938 76.0663C95.0687 76.4757 94.7537 76.9954 94.549 77.6252C94.3601 78.255 94.2735 78.9872 94.2892 79.8218L92.8485 78.877C92.8485 77.1607 93.0138 75.6018 93.3445 74.2004C93.6909 72.7833 94.179 71.563 94.8088 70.5395C95.4387 69.5002 96.2024 68.705 97.0999 68.1539C97.9974 67.5871 99.0052 67.3036 100.123 67.3036C100.517 67.3036 100.903 67.3273 101.28 67.3745C101.674 67.4217 102.021 67.4926 102.32 67.5871ZM121.656 86.9075V76.3734C121.656 75.6491 121.554 75.0271 121.349 74.5075C121.144 73.9879 120.821 73.5863 120.38 73.3029C119.94 73.0037 119.349 72.8541 118.609 72.8541C118.011 72.8541 117.499 72.9565 117.074 73.1612C116.649 73.3659 116.326 73.6729 116.105 74.0823C115.885 74.4917 115.775 75.0113 115.775 75.6412H107.815C107.815 74.4602 108.075 73.3659 108.595 72.3581C109.13 71.3346 109.886 70.445 110.862 69.6892C111.854 68.9334 113.035 68.3508 114.405 67.9414C115.79 67.5162 117.334 67.3036 119.034 67.3036C121.065 67.3036 122.876 67.6422 124.467 68.3193C126.073 68.9963 127.34 70.012 128.269 71.3661C129.198 72.7045 129.663 74.3894 129.663 76.4206V86.8839C129.663 88.553 129.757 89.8205 129.946 90.6866C130.135 91.5369 130.403 92.2848 130.749 92.9304V93.3319H122.766C122.388 92.5446 122.105 91.5841 121.916 90.4504C121.743 89.3009 121.656 88.12 121.656 86.9075ZM122.624 77.7197L122.672 81.9711H119.152C118.412 81.9711 117.782 82.0735 117.263 82.2782C116.759 82.4829 116.349 82.7663 116.035 83.1284C115.735 83.4749 115.515 83.8685 115.373 84.3094C115.247 84.7503 115.184 85.2148 115.184 85.7029C115.184 86.1753 115.294 86.6005 115.515 86.9784C115.751 87.3405 116.066 87.624 116.46 87.8287C116.853 88.0334 117.294 88.1357 117.782 88.1357C118.664 88.1357 119.412 87.9704 120.026 87.6397C120.656 87.2933 121.136 86.876 121.467 86.3879C121.798 85.8998 121.963 85.4431 121.963 85.018L123.711 88.2774C123.396 88.9073 123.034 89.545 122.624 90.1906C122.231 90.8362 121.735 91.4345 121.136 91.9856C120.554 92.521 119.837 92.9619 118.987 93.3083C118.137 93.639 117.105 93.8043 115.893 93.8043C114.318 93.8043 112.87 93.4815 111.547 92.8359C110.24 92.1903 109.193 91.2928 108.406 90.1433C107.618 88.9781 107.225 87.6397 107.225 86.1281C107.225 84.8054 107.461 83.6245 107.933 82.5852C108.421 81.546 109.154 80.6642 110.13 79.9399C111.106 79.2155 112.35 78.6644 113.862 78.2865C115.373 77.9086 117.153 77.7197 119.2 77.7197H122.624ZM154.172 67.776H161.399V92.3399C161.399 94.7018 160.856 96.7016 159.769 98.3392C158.683 99.9925 157.163 101.244 155.211 102.095C153.274 102.961 151.007 103.394 148.408 103.394C147.259 103.394 146.086 103.244 144.889 102.945C143.693 102.661 142.575 102.236 141.535 101.669C140.496 101.103 139.622 100.402 138.914 99.5674L142.244 94.8908C142.889 95.6151 143.7 96.2292 144.677 96.7331C145.653 97.2527 146.802 97.5125 148.125 97.5125C149.275 97.5125 150.235 97.3078 151.007 96.8984C151.794 96.489 152.392 95.8906 152.802 95.1033C153.211 94.3318 153.416 93.3949 153.416 92.2927V73.8225L154.172 67.776ZM137.189 80.861V80.365C137.189 78.4282 137.426 76.6647 137.898 75.0743C138.386 73.4682 139.079 72.0904 139.976 70.941C140.89 69.7758 141.992 68.8782 143.283 68.2484C144.574 67.6186 146.031 67.3036 147.653 67.3036C149.401 67.3036 150.833 67.6422 151.951 68.3193C153.085 68.9806 153.99 69.9096 154.668 71.1063C155.36 72.303 155.896 73.7044 156.274 75.3105C156.667 76.9009 156.998 78.6172 157.266 80.4595V81.05C156.998 82.782 156.628 84.4196 156.156 85.9627C155.699 87.4901 155.101 88.8443 154.361 90.0252C153.62 91.2062 152.691 92.1352 151.573 92.8123C150.471 93.4736 149.149 93.8043 147.605 93.8043C145.999 93.8043 144.551 93.4815 143.26 92.8359C141.984 92.1903 140.89 91.2849 139.976 90.1197C139.079 88.9545 138.386 87.5846 137.898 86.01C137.426 84.4354 137.189 82.7191 137.189 80.861ZM145.149 80.365V80.861C145.149 81.8215 145.236 82.7112 145.409 83.53C145.598 84.3488 145.881 85.0731 146.259 85.7029C146.637 86.317 147.102 86.7973 147.653 87.1437C148.22 87.4901 148.881 87.6633 149.637 87.6633C150.786 87.6633 151.715 87.4193 152.424 86.9311C153.132 86.443 153.644 85.7502 153.959 84.8526C154.274 83.9551 154.408 82.9001 154.361 81.6877V79.8218C154.392 78.7825 154.321 77.8693 154.148 77.082C153.975 76.2789 153.699 75.6097 153.321 75.0743C152.959 74.539 152.471 74.1374 151.857 73.8698C151.259 73.5863 150.534 73.4446 149.684 73.4446C148.944 73.4446 148.29 73.6178 147.724 73.9642C147.157 74.3106 146.684 74.7988 146.306 75.4286C145.928 76.0427 145.637 76.7749 145.432 77.6252C145.244 78.4597 145.149 79.373 145.149 80.365ZM182.389 93.8043C180.31 93.8043 178.452 93.4815 176.814 92.8359C175.177 92.1746 173.791 91.2692 172.657 90.1197C171.539 88.9702 170.681 87.6476 170.083 86.1517C169.5 84.6558 169.209 83.0733 169.209 81.4043V80.5067C169.209 78.6329 169.469 76.9009 169.989 75.3105C170.508 73.7044 171.28 72.303 172.303 71.1063C173.327 69.9096 174.61 68.9806 176.153 68.3193C177.696 67.6422 179.491 67.3036 181.538 67.3036C183.349 67.3036 184.971 67.5949 186.404 68.1775C187.837 68.7602 189.049 69.5947 190.041 70.6812C191.049 71.7677 191.813 73.0825 192.332 74.6256C192.868 76.1687 193.135 77.9008 193.135 79.8218V83.0576H172.256V78.074H185.365V77.4599C185.38 76.6096 185.231 75.8853 184.916 75.2869C184.617 74.6886 184.176 74.2319 183.593 73.917C183.011 73.6021 182.302 73.4446 181.467 73.4446C180.601 73.4446 179.885 73.6336 179.318 74.0115C178.767 74.3894 178.334 74.909 178.019 75.5703C177.72 76.2159 177.507 76.9639 177.381 77.8141C177.255 78.6644 177.192 79.562 177.192 80.5067V81.4043C177.192 82.349 177.318 83.2072 177.57 83.9787C177.838 84.7503 178.216 85.4116 178.704 85.9627C179.208 86.4981 179.806 86.9154 180.499 87.2146C181.208 87.5137 182.011 87.6633 182.908 87.6633C183.995 87.6633 185.065 87.4586 186.12 87.0492C187.175 86.6398 188.081 85.9627 188.837 85.018L192.45 89.3167C191.931 90.0567 191.191 90.7732 190.23 91.466C189.285 92.1588 188.152 92.7257 186.829 93.1666C185.506 93.5917 184.026 93.8043 182.389 93.8043Z" fill="#6E9FE9"/>
</svg>
